<svg version="1.1" xmlns="http://www.w3.org/2000/svg" style="display: block;" viewBox="0 0 2048 2048" width="1024" height="1024">
<defs>
	<linearGradient id="Gradient1" gradientUnits="userSpaceOnUse" x1="503.86" y1="947.176" x2="567.476" y2="918.572">
		<stop class="stop0" offset="0" stop-opacity="1" stop-color="rgb(12,131,132)"/>
		<stop class="stop1" offset="1" stop-opacity="1" stop-color="rgb(3,142,167)"/>
	</linearGradient>
</defs>
<path transform="translate(0,0)" fill="rgb(19,10,9)" d="M 0 0 L 446.654 0 L 452.369 0 L 1490.59 0 L 2048 0 L 2048 1568.29 L 2048 2048 L 915.672 2048 L 735.965 2048 L 0 2048 L 0 0 z"/>
<path transform="translate(0,0)" fill="rgb(12,134,147)" d="M 910.865 1122.75 L 911.584 1125.97 L 912.572 1125.77 L 912.275 1127.5 C 913.097 1126.23 913.157 1125.46 914.66 1125.01 L 916.203 1131.41 L 916.123 1132.3 C 915.693 1137.54 917.696 1148.68 913.766 1152.23 L 911.853 1152.46 C 909.795 1143.16 910.855 1132.27 910.865 1122.75 z"/>
<path transform="translate(0,0)" fill="rgb(23,85,193)" d="M 906.475 1023.16 C 908.768 1023.38 909.91 1023.45 911.987 1024.54 L 912.428 1045.18 L 910.539 1047.39 L 909.256 1047.35 L 908.813 1053.31 C 908.355 1051.87 908.268 1050.68 908.15 1049.18 L 907.374 1048.3 C 905.791 1039.95 906.145 1031.6 906.475 1023.16 z"/>
<path transform="translate(0,0)" fill="rgb(228,241,243)" d="M 884.834 797.19 C 884.853 794.839 885.062 792.675 885.385 790.355 C 889.364 793.703 889.616 793.915 894.791 794.132 C 893.537 798.999 891.179 814.227 888.284 817.039 C 885.618 812.152 884.579 802.796 884.834 797.19 z"/>
<path transform="translate(0,0)" fill="rgb(228,241,243)" d="M 900.9 1020.25 C 903.471 1033.45 902.031 1048.84 901.976 1062.34 C 899.691 1060.68 897.621 1059.4 895.077 1058.18 C 895.042 1045.26 899.375 1032.98 900.9 1020.25 z"/>
<path transform="translate(0,0)" fill="rgb(160,249,254)" d="M 549.381 1156.98 C 545.073 1145.34 542.655 1119.62 545.499 1107.78 L 546.291 1108.18 C 547.705 1116.55 548.719 1125.41 551.087 1133.55 C 553.008 1140.15 555.896 1146.43 557.736 1153.06 L 557.034 1154.51 C 555.446 1151.94 553.686 1149.36 552.388 1146.63 C 550.531 1148.7 550.847 1154.55 550.271 1157.42 L 549.381 1156.98 z"/>
<path transform="translate(0,0)" fill="rgb(10,114,123)" d="M 916.203 1131.41 C 916.919 1134.44 919.192 1189.37 918.454 1191.97 L 919.764 1193.5 C 918.404 1193.77 916.805 1194.04 915.802 1195.12 C 915.563 1195.37 915.416 1195.7 915.222 1195.99 C 914.99 1191.14 913.11 1186.4 912.787 1181.42 C 912.159 1171.75 913.053 1162.14 911.853 1152.46 L 913.766 1152.23 C 917.696 1148.68 915.693 1137.54 916.123 1132.3 L 916.203 1131.41 z"/>
<path transform="translate(0,0)" fill="rgb(12,134,147)" d="M 912.428 1045.18 C 914.791 1063.19 917.148 1107.87 914.66 1125.01 C 913.157 1125.46 913.097 1126.23 912.275 1127.5 L 912.572 1125.77 L 911.584 1125.97 L 910.865 1122.75 C 909.96 1116.79 909.111 1110.83 909.105 1104.78 C 909.101 1099.56 911.486 1087.45 910.389 1083.15 C 910.13 1082.14 907.914 1080.79 907.435 1079.73 C 905.625 1075.72 907.185 1054.17 907.374 1048.3 L 908.15 1049.18 C 908.268 1050.68 908.355 1051.87 908.813 1053.31 L 909.256 1047.35 L 910.539 1047.39 L 912.428 1045.18 z"/>
<path transform="translate(0,0)" fill="rgb(12,134,147)" d="M 398.469 823.676 C 400.607 831.531 399.168 842.129 399.747 850.473 C 401.287 872.666 403.035 894.975 405.139 917.121 C 406.381 930.198 411.935 947.939 408.832 960.661 L 407.428 961.435 L 405.475 959.362 C 403.273 956.78 401.239 954.012 399.14 951.343 C 397.522 915.814 380.955 854.233 398.469 823.676 z"/>
<path transform="translate(0,0)" fill="rgb(12,134,147)" d="M 769.095 1010.96 C 771.598 1010.2 771.89 1010.06 773.077 1007.51 C 775.553 1002.19 774.363 991.525 774.339 985.64 C 774.294 974.605 774.492 963.397 773.814 952.39 C 773.393 945.555 771.88 938.916 771.225 932.117 C 770.583 925.469 770.777 918.732 770.212 912.069 C 769.556 904.324 768.201 896.642 767.559 888.896 C 766.977 881.886 767.187 874.82 766.588 867.818 C 765.554 855.742 762.633 843.977 762.383 831.802 C 762.235 824.584 762.2 814.341 765.377 807.812 L 766.59 807.739 C 767.751 809.566 768.389 810.697 768.821 812.866 C 770.795 822.756 777.42 878.647 775.76 885.8 C 775.244 888.02 774.469 889.528 774.362 891.844 C 776.696 893.677 777.94 894.519 778.249 897.622 C 779.098 906.145 778.345 915.239 778.65 923.844 C 779.367 944.064 784.716 999.074 771.543 1013.13 L 769.095 1010.96 z"/>
<path transform="translate(0,0)" fill="url(#Gradient1)" d="M 541.624 1040.41 C 539.885 1023.15 536.66 1005.97 534.178 988.805 C 531.029 967.015 528.479 945.112 525.757 923.265 C 524.184 910.633 522.017 897.996 521.319 885.282 C 520.749 874.886 523.388 835.74 530.129 828.241 C 533.301 833.42 533.693 878.806 533.793 888.563 C 533.944 903.34 533.594 918.25 534.942 932.983 C 535.734 941.635 538.233 950.004 539.509 958.584 C 543.124 982.906 546.028 1007.23 550.188 1031.48 C 546.336 1033.99 544.204 1036.64 541.624 1040.41 z"/>
<path transform="translate(0,0)" fill="rgb(12,134,147)" d="M 902.636 788.397 L 909.61 948.575 C 910.704 973.815 910.027 999.333 911.987 1024.54 C 909.91 1023.45 908.768 1023.38 906.475 1023.16 C 906.874 1020.49 907.325 1018.89 906.153 1016.35 C 903.772 1014.33 901.651 1013.31 901.05 1010.05 C 900.159 1005.22 901.014 998.617 901.02 993.629 C 901.041 975.764 901.731 957.686 900.809 939.861 C 899.554 915.595 897.884 891.108 895.286 866.949 C 893.895 854.012 890.649 840.087 890.611 827.175 C 890.817 826.964 891.033 826.763 891.228 826.542 C 897.155 819.875 899.942 797.916 902.636 788.397 z"/>
<path transform="translate(0,0)" fill="rgb(12,134,147)" d="M 1848.56 1020.4 C 1864.16 1018.24 1882 1019.92 1897.77 1020.02 C 1891.04 1031.39 1884.55 1042.68 1877.33 1053.76 C 1866.5 1054.81 1855.78 1055.36 1844.91 1055.69 C 1834.4 1056.25 1811.84 1061.86 1803.41 1055.35 C 1796.51 1050.02 1796.8 1037.14 1796.14 1029.32 C 1810.5 1018.63 1831.46 1022.22 1848.56 1020.4 z"/>
<path transform="translate(0,0)" fill="rgb(181,62,75)" d="M 534.699 1182.15 C 534.751 1182.19 534.82 1182.22 534.855 1182.27 C 536.198 1184.42 535.831 1184.79 535.213 1187.11 C 532.132 1198.68 524.525 1219.1 513.72 1224.89 C 505.241 1229.43 449.982 1234.74 440.294 1231.9 C 439.705 1230.27 439.371 1229.12 438.034 1227.93 C 436.867 1226.9 435.69 1225.91 434.549 1224.84 C 434.499 1224.21 434.272 1223.57 434.398 1222.95 C 434.493 1222.48 446.972 1199.17 449.059 1193.1 C 475.663 1193.48 509.464 1190.65 534.699 1182.15 z"/>
<path transform="translate(0,0)" fill="rgb(12,134,147)" d="M 1464.76 984.818 C 1468.13 989.905 1464.8 1013.67 1472.1 1026.51 C 1473.7 1029.34 1478.35 1035.54 1481.6 1036.39 C 1484.68 1037.19 1489.51 1036.68 1492.8 1036.97 C 1499.33 1037.56 1505.83 1038.6 1512.38 1039 C 1524.46 1039.72 1536.9 1039.02 1548.61 1042.46 C 1549.02 1042.58 1549.43 1042.71 1549.84 1042.84 C 1544.79 1056.52 1539.49 1069.01 1529.79 1080.07 C 1528.19 1080.79 1526.79 1080.66 1525.11 1080.19 C 1507.27 1075.2 1476.2 1078.94 1461.01 1071.07 C 1453.43 1067.14 1451.17 1057.54 1448.85 1050.01 C 1440.63 1023.32 1452.89 1007.58 1464.76 984.818 z"/>
<path transform="translate(0,0)" fill="rgb(12,134,147)" d="M 1894.42 860.444 L 1896.86 860.417 L 1897.43 861.883 C 1893.09 870.478 1888.47 879.062 1884.55 887.854 C 1883.29 890.667 1882.65 895.735 1880.65 897.827 C 1877.58 901.029 1872.5 902.284 1868.25 902.834 C 1859.56 903.96 1850.09 903.195 1841.33 903.224 C 1823.01 903.283 1804.48 903.201 1786.19 904.26 C 1780.64 897.84 1779.33 893.319 1778.78 884.87 C 1778.4 879.148 1778.78 872.073 1783.12 867.78 C 1786.05 864.888 1790.23 864.229 1794.14 863.675 C 1806.02 861.992 1818.89 862.852 1830.95 862.63 C 1852.02 862.243 1873.37 861.565 1894.42 860.444 z"/>
<path transform="translate(0,0)" fill="rgb(181,62,75)" d="M 278.19 1002.59 C 290.408 1011.89 304.663 1031.27 314.817 1043.37 C 323.445 1053.65 332.418 1063.74 341.202 1073.9 C 375.174 1113.18 414.379 1150.63 443.272 1193.94 L 434.521 1214.74 L 431.402 1223.05 C 417.95 1207.92 403.336 1193.7 389.539 1178.87 C 369.378 1157.2 349.814 1134.9 329.882 1113.01 C 315.722 1097.46 299.637 1081.93 287.807 1064.5 C 281.252 1054.85 276.062 1014.44 278.19 1002.59 z"/>
<path transform="translate(0,0)" fill="rgb(12,134,147)" d="M 1454.9 866.264 C 1484.39 869.069 1494.44 864.821 1525.21 875.01 C 1533.44 877.732 1551.36 889.736 1557.37 890.58 C 1562.7 891.328 1567.71 892.291 1572.94 893.583 C 1564.63 904.697 1560.33 918.023 1551.81 929.131 C 1544.13 928.079 1536.06 927.255 1528.63 924.998 C 1520.17 922.429 1512.13 918.548 1503.64 916.063 C 1481.89 909.694 1459.23 908.42 1436.75 909.493 C 1433.37 908.823 1431.43 909.147 1428.13 909.874 A 130.486 130.486 0 0 0 1347.05 966.791 C 1348.51 949.68 1353.35 932.737 1362.78 918.227 C 1382.71 887.569 1420.7 873.268 1454.9 866.264 z"/>
<path transform="translate(0,0)" fill="rgb(12,134,147)" d="M 919.764 1193.5 C 928.831 1191.84 938.706 1192.43 947.926 1192.34 C 967.967 1192.16 987.997 1192.6 1008.03 1192.49 C 1050.35 1192.26 1089.9 1182.68 1128.73 1166.28 C 1137.77 1162.46 1147.27 1158.68 1155.65 1153.58 C 1173.7 1142.58 1189.5 1128.1 1203.49 1112.36 L 1204 1113.15 C 1195.74 1125.63 1185.83 1137.21 1176.61 1148.99 C 1168.79 1158.97 1161.26 1170.1 1152.29 1179 C 1124.56 1206.52 1082.48 1218.64 1045.22 1226.15 C 1034.05 1228.4 1021.35 1229.69 1009.99 1230.38 C 998.809 1231.05 987.31 1230.19 976.108 1230.04 C 958.909 1229.81 934.128 1233.16 918.274 1225.51 C 917.459 1223.76 917.457 1223.07 917.273 1221.19 C 916.978 1218.19 916.234 1216.19 914.942 1213.53 L 914.145 1211.86 C 913.964 1211.49 913.772 1211.12 913.586 1210.75 C 914.174 1205.85 914.927 1200.92 915.222 1195.99 C 915.416 1195.7 915.563 1195.37 915.802 1195.12 C 916.805 1194.04 918.404 1193.77 919.764 1193.5 z"/>
<path transform="translate(0,0)" fill="rgb(181,62,75)" d="M 133.475 823.633 C 137.584 827.379 133.084 836.917 134.866 841.463 C 135.276 842.509 137.39 843.498 137.888 844.552 C 139.962 848.945 138.641 863.445 138.992 869.026 C 139.677 879.914 141.741 891.289 143.025 902.193 C 144.206 912.219 146.205 922.182 147.203 932.217 C 148.565 945.92 148.788 959.656 150.354 973.396 C 153.494 1000.94 157.55 1028.57 159.668 1056.22 L 166.414 1137.61 C 167.893 1157.14 168.395 1176.74 172.421 1195.98 C 173.686 1202.02 174.133 1206.83 179.828 1210.29 C 185.523 1213.76 256.681 1209.55 268.563 1208.2 C 274.486 1207.52 280.268 1205.85 285.996 1204.24 C 278.865 1215.07 274.975 1228.7 269.075 1240.38 C 267.954 1241.32 266.852 1242.28 265.561 1242.99 C 256.796 1247.79 187.878 1252.08 175.643 1251.68 C 172.085 1251.56 168.627 1250.45 165.249 1249.41 C 153.056 1225.82 154.074 1188.98 151.321 1162.58 C 148.888 1139.25 145.704 1116.04 143.566 1092.67 C 141.837 1073.78 141.122 1054.82 139.418 1035.93 C 138.599 1026.85 135.625 1017.78 135.091 1008.82 C 134.811 1004.13 136.262 999.481 136.258 994.804 C 136.255 991.828 135.878 991.725 133.904 989.645 C 130.75 967.248 130.142 944.593 128.011 922.103 C 126.391 905.005 121.222 873.774 122.544 858.257 C 123.48 847.272 129.298 833.852 133.475 823.633 z"/>
<path transform="translate(0,0)" fill="rgb(181,62,75)" d="M 550.188 1031.48 C 553.604 1048.95 558.492 1065.66 563.707 1082.66 C 567.58 1095.29 570.973 1108.66 576.172 1120.81 C 587.476 1147.2 610.074 1174.98 633.768 1191.01 C 670.36 1215.75 723.008 1219.33 765.313 1210.89 C 800.826 1203.8 825.666 1189.68 851.141 1164.04 C 855.844 1159.3 859.602 1153.57 864.319 1149.02 L 863.543 1150.31 C 856.333 1162.5 851.757 1175.91 844.117 1187.91 C 829.871 1210.3 793.985 1234.65 768.236 1241.59 C 755.336 1245.07 698.554 1252.75 689.45 1247.28 C 688.357 1246.62 687.304 1245.62 686.353 1244.79 C 685.915 1244.79 685.476 1244.78 685.038 1244.77 C 650.947 1243.9 616.799 1224.43 593.832 1200.09 C 574.657 1179.76 561.487 1148.84 555.385 1121.79 C 552.679 1109.79 551.221 1097.45 548.973 1085.35 C 546.153 1070.17 542.96 1055.88 541.624 1040.41 C 544.204 1036.64 546.336 1033.99 550.188 1031.48 z"/>
<path transform="translate(0,0)" fill="rgb(12,134,147)" d="M 1648.41 788.728 C 1651.14 792.117 1660.85 880.873 1661.72 891.644 L 1669.38 990.05 C 1669.97 997.66 1669.67 1005.41 1670.43 1012.98 C 1671.24 1020.95 1673.05 1028.84 1674.05 1036.8 C 1677.35 1062.86 1680.76 1089.33 1683 1115.48 C 1684.3 1130.56 1682.66 1145.7 1684.93 1160.77 C 1686.01 1167.93 1687.76 1180.54 1692.85 1185.92 C 1697.42 1190.75 1705.7 1195.33 1712.34 1196.1 C 1724.88 1197.55 1739.28 1195.05 1752.1 1195.07 C 1789.44 1195.14 1826.56 1193.16 1863.86 1192.19 C 1883.86 1191.67 1903.94 1191.87 1923.96 1191.65 A 125.164 125.164 0 0 1 1908.71 1220.81 C 1906.9 1222.95 1905.07 1225.12 1902.79 1226.79 C 1897.95 1230.33 1890.15 1231.35 1884.27 1231.82 C 1872.51 1232.77 1860.29 1231.84 1848.46 1231.98 C 1830.06 1232.19 1702.22 1235.89 1695.21 1233.7 C 1689.28 1231.85 1682.68 1224.48 1680.26 1219.01 C 1669.42 1194.44 1670.48 1135.67 1667.51 1106.17 L 1646.73 881.258 C 1646.23 876.191 1644.86 871.217 1644.3 866.13 C 1642.35 848.315 1641.65 829.269 1641.99 811.359 C 1642.14 803.179 1645.45 796.22 1648.41 788.728 z"/>
<path transform="translate(0,0)" fill="rgb(12,134,147)" d="M 1245.53 1025.77 C 1249.66 1029.63 1252.99 1046.96 1255.41 1053.18 A 235.885 235.885 0 0 0 1349.19 1165.56 C 1395.34 1194.86 1485.14 1203.59 1537.44 1191.63 C 1575.33 1182.96 1605.86 1160.16 1626.43 1127.52 C 1622.02 1139.45 1616.83 1149.22 1609.75 1159.8 C 1600.52 1171.95 1591.96 1185.61 1581.47 1196.66 C 1555.73 1223.8 1521.16 1233.51 1484.34 1234.2 C 1417.36 1235.46 1344.91 1219.9 1295.77 1171.5 C 1269.65 1145.78 1252.06 1118.93 1240.79 1083.76 C 1238.98 1078.11 1235.96 1070.98 1236.09 1065.06 C 1236.1 1064.59 1236.14 1064.12 1236.15 1063.66 C 1236.61 1050.16 1242.89 1039.92 1245.31 1027.05 C 1245.39 1026.62 1245.45 1026.2 1245.53 1025.77 z"/>
<path transform="translate(0,0)" fill="rgb(60,171,254)" d="M 1862.45 750.55 C 1867.58 749.923 1872.64 750.123 1877.79 750.24 C 1881.7 752.68 1885.08 754.723 1887.67 758.662 C 1899.06 775.958 1905.61 830.351 1901.76 850.559 C 1898.42 852.207 1895.11 853.848 1891.44 854.566 C 1882.36 856.338 1872.91 855.664 1863.72 856.242 C 1837.48 857.893 1811.26 858.505 1785 860.086 C 1780.96 862.478 1777.63 865.106 1774.16 868.268 C 1774.9 881.244 1770.43 909.337 1779.78 919.095 C 1786.42 926.014 1821.09 921.388 1831.3 921.08 C 1845.58 920.648 1884.45 918.151 1894.04 927.974 C 1901.95 936.073 1904.22 995.611 1904.09 1008.93 C 1901.42 1010.49 1899.12 1012.39 1896.73 1014.33 C 1881.05 1015.56 1865.56 1014.09 1849.94 1014.74 C 1832.63 1015.46 1815.4 1018.39 1798.25 1020.6 C 1796.15 1022.29 1792.85 1024.55 1791.46 1026.89 C 1788.89 1031.19 1791.19 1045.98 1792.43 1050.89 C 1793.61 1055.53 1796.52 1059.89 1801.05 1061.79 C 1821.63 1070.4 1889.69 1051.52 1909.02 1064.44 C 1923.8 1074.31 1922.54 1135.87 1926.01 1153.6 C 1926.09 1154.01 1926.19 1154.42 1926.27 1154.83 C 1927.97 1161.93 1927.17 1170.5 1927.12 1177.81 C 1923.63 1180.85 1920.1 1184.42 1915.41 1185.35 C 1900.44 1188.33 1878.55 1185.36 1862.65 1185.68 L 1723.99 1189.21 C 1710.97 1189.44 1704.72 1187.83 1695.16 1178.61 C 1689.29 1157.88 1689.31 1137.84 1688 1116.62 C 1687.25 1104.4 1685.91 1092.17 1684.67 1079.99 C 1680.02 1034.47 1674.22 989.079 1670.14 943.495 C 1668.56 925.898 1669.09 908.122 1667.52 890.544 C 1665.04 862.852 1660.3 835.068 1657.08 807.418 C 1655.64 795.02 1651.86 773.689 1660.52 763.357 C 1661.98 761.62 1663.59 760.538 1665.82 760.049 C 1671.39 758.825 1677.75 759.391 1683.47 758.939 C 1708.08 756.993 1732.13 756.106 1756.83 755.748 C 1779.69 755.416 1802.86 753.565 1825.71 752.286 C 1837.27 751.638 1849.28 751.848 1860.73 750.734 L 1862.45 750.55 z"/>
<path transform="translate(0,0)" fill="rgb(60,171,254)" d="M 1456.81 758.296 C 1508.26 758.452 1550.06 762.679 1593.26 793.936 C 1595.34 800.027 1597.36 807.075 1597.64 813.498 C 1598.35 829.685 1587.53 868.647 1576.39 880.216 C 1573.76 882.956 1570.44 885.224 1566.5 885.079 C 1556.71 884.719 1542.91 875.948 1533.7 872.221 C 1515.3 864.771 1498.82 861.09 1479.09 860.906 C 1469.59 860.817 1459.53 860.215 1450.12 861.438 C 1421.94 865.098 1390.83 880.536 1370.7 900.555 C 1350.13 920.999 1340.8 948.283 1340.87 976.936 C 1340.95 1009.33 1348.75 1034.49 1372 1057.5 C 1403.7 1088.86 1447.49 1099.24 1490.95 1098.95 C 1507.18 1098.84 1524.86 1093.86 1536.38 1081.8 C 1543.57 1074.28 1556.15 1054.67 1555.65 1044.07 C 1554.86 1027 1494.6 1039.05 1480.24 1025.23 C 1470.14 1015.5 1471.91 993.171 1471.77 980.194 C 1471.69 971.863 1473.6 965.178 1479.79 959.233 C 1483.79 955.393 1489.1 953.118 1494.55 952.276 C 1513.63 949.326 1553.34 956.938 1575.53 957.672 C 1589.93 958.879 1617.03 959.011 1629.28 965.307 C 1637.05 969.303 1641.73 976.854 1643.92 985.117 C 1646.79 995.9 1646.85 1008.03 1647.08 1019.15 C 1647.86 1056.05 1644.35 1083.43 1625.98 1116.23 C 1607.39 1149.41 1581.54 1173.47 1544.31 1183.82 C 1513.94 1192.26 1484.08 1190.65 1453.14 1187.94 C 1420.42 1185.07 1388.17 1181.23 1359.09 1164.51 C 1308.83 1135.62 1268.01 1083.45 1253.3 1027.03 C 1251.91 1021.68 1251.07 1015.93 1250.86 1010.4 C 1250.39 997.783 1252.01 984.92 1251.89 972.215 C 1251.72 954.533 1248.14 934.594 1250.75 917.267 C 1253.07 901.904 1258.75 884.368 1266.79 871.01 A 224.297 224.297 0 0 1 1405.1 767.899 C 1422.26 763.517 1439.72 762.471 1456.81 758.296 z"/>
<path transform="translate(0,0)" fill="rgb(60,171,254)" d="M 769.753 784.505 C 773.557 781.488 777.597 778.381 782.089 776.467 C 797.883 769.739 828.01 763.659 845.065 763.575 C 855.145 763.526 863.394 764.539 870.79 771.852 C 875.495 778.74 874.274 782.847 876.683 789.998 C 877.66 801.317 880.646 812.5 882.708 823.664 C 885.555 839.075 887.865 854.876 889.881 870.429 C 891.968 886.526 894.113 904.712 893.707 920.953 C 893.544 927.486 890.53 933.845 890.812 940.311 C 890.987 944.334 893.631 945.23 894.854 948.557 C 896.316 952.535 895.352 983.404 895.345 990.377 C 895.311 1027.13 884.508 1096.78 868.991 1128.96 C 862.473 1142.47 853.273 1154.49 842.637 1165.01 C 818.761 1188.65 791.293 1200.16 758.732 1205.73 C 750.379 1207.16 742.004 1208.8 733.505 1208.72 C 720.362 1208.6 706.66 1208.79 693.64 1207.03 C 665.586 1203.23 636.469 1189.29 616.714 1168.89 C 603.603 1155.35 590.958 1137.4 583.03 1120.38 C 561.504 1074.16 553.912 1016.24 546.833 966.115 C 544.892 952.37 541.809 938.603 540.627 924.775 C 539.071 906.577 539.299 888.335 538.739 870.104 C 538.413 859.463 537.19 848.864 536.835 838.223 C 536.401 825.191 536.81 812.101 537.04 799.067 C 540.203 793.503 543.23 789.01 549.326 786.476 C 555.54 783.893 562.951 783.93 569.54 782.734 C 585.806 779.784 615.504 772.422 630.691 778.899 C 633.946 780.287 636.444 782.207 637.774 785.602 C 641.158 794.238 649.435 868.73 649.823 879.869 C 650.659 903.902 648.25 928.475 650.421 952.398 C 652.243 972.472 656.086 993.543 664.209 1012.04 C 670.723 1026.88 686.227 1049.58 701.707 1055.35 C 715.231 1060.39 729.47 1060.31 742.653 1054.25 C 763.696 1044.59 774.626 1027.46 782.622 1006.62 C 784.684 1001.25 783.179 998.188 783.783 992.825 C 785.631 976.418 785.027 960.753 784.8 944.316 C 784.06 890.651 777.935 837.515 769.753 784.505 z"/>
<path transform="translate(0,0)" fill="rgb(60,171,254)" d="M 486.662 771.097 C 493.169 772.065 496.079 775.613 500.412 780.086 C 504.864 797.298 506.458 815.46 508.717 833.071 C 510.387 846.096 513.196 859.058 514.661 872.055 C 517.222 894.781 518.015 917.795 520.597 940.573 C 524.99 979.33 547.282 1147.58 539.428 1174.45 C 532.786 1181.02 463.669 1186.01 450.363 1186.95 C 439.079 1178.84 432.336 1165.94 423.039 1155.83 C 395.738 1126.14 368.223 1096.08 342.121 1065.34 C 322.959 1042.76 303.683 1020.76 283.13 999.445 C 279.701 995.889 277.262 990.819 273.738 987.624 C 272.09 986.129 272.096 986.149 269.808 986.389 C 268.704 988.334 268.304 989.122 268.404 991.452 C 268.627 996.627 270.692 1001.75 271.278 1006.93 C 272.675 1019.28 273.493 1031.68 274.91 1044.07 C 276.417 1057.23 276.76 1070.56 278.131 1083.75 C 281.913 1120.16 286.395 1156.41 288.809 1192.96 C 261.472 1208.62 249.853 1198.73 222.902 1204.12 C 208.862 1205.54 195.797 1205.2 182.026 1202.05 C 174 1178.96 174.969 1153.16 172.816 1128.99 L 164.311 1039.55 C 162.202 1019.36 159.552 999.232 157.565 979.012 C 155.39 956.883 153.867 934.612 151.284 912.535 L 143.626 846.008 C 142.786 838.557 141.294 831.198 140.672 823.715 C 140.286 819.078 140.237 813.878 141.916 809.473 C 142.889 806.922 144.482 804.933 147.045 803.876 C 152.38 801.674 159.954 801.574 165.743 800.855 C 184.508 798.522 224.437 796.439 239.827 790.16 C 240.223 789.998 240.615 789.827 241.009 789.661 C 247.449 790.762 255.181 791.18 260.108 795.887 C 268.971 804.356 277.774 821.576 286.243 831.907 A 2278.71 2278.71 0 0 0 357.12 915.461 C 372.879 933.378 387.934 951.012 405.091 967.715 C 407.719 968.784 409.818 968.308 412.523 967.914 C 415.299 965.912 415.95 963.354 416.081 960.085 C 416.593 947.286 413.6 933.065 412.013 920.285 C 409.642 901.19 408.212 882.126 406.578 862.961 C 404.806 842.184 399.785 818.068 405.191 797.617 C 406.251 793.606 409.089 789.945 411.405 786.556 C 435.703 778.943 463.072 781.055 486.662 771.097 z"/>
<path transform="translate(0,0)" fill="rgb(60,171,254)" d="M 940.638 767.222 C 955.043 765.279 971.461 768.471 986.003 768.894 C 993.134 769.101 1000.27 768.577 1007.4 768.755 C 1015.74 768.965 1024.04 770.007 1032.39 770.122 C 1041.3 770.245 1050.4 769.71 1059.27 770.552 C 1074.56 772.004 1091.2 774.007 1106.01 778.166 C 1143.41 788.672 1177.21 813.759 1201.46 843.645 C 1236.72 887.101 1251.79 940.372 1245.99 995.894 A 211.319 211.319 0 0 1 1168.44 1137.8 C 1153.55 1150 1136.91 1157.46 1119.11 1164.42 C 1104.48 1170.14 1089.46 1175.77 1074.13 1179.29 C 1026.11 1190.31 974.578 1187.11 925.622 1186.94 C 926.412 1177.15 923.537 1168.02 922.9 1158.32 C 922.358 1150.08 922.945 1141.77 922.694 1133.51 C 922.481 1126.49 921.688 1119.5 921.421 1112.48 L 914.997 969.261 C 914.6 960.324 915.016 951.356 914.695 942.417 C 914.391 933.939 913.026 925.535 912.476 917.074 C 911.837 907.245 912.119 897.37 911.497 887.523 C 910.345 869.258 909.646 851.074 908.63 832.816 C 907.545 813.339 904.93 791.591 908.32 772.302 C 914.163 764.357 928.644 770.632 936.791 769.394 C 937.694 769.256 939.742 767.728 940.638 767.222 z"/>
<path transform="translate(0,0)" fill="rgb(19,10,9)" d="M 1035.62 874.539 C 1042.49 874.177 1049.41 873.921 1056.18 875.319 C 1084.58 881.196 1109.86 900.556 1125.5 924.686 C 1137.87 943.756 1139.84 972.52 1134.93 994.403 C 1129.92 1016.72 1114.4 1037.71 1095.26 1049.93 C 1088.75 1053.76 1082.52 1056.52 1075.32 1058.82 C 1067.22 1061.41 1032.09 1071.27 1024.54 1067.38 C 1020.38 1054.52 1022.99 1038.91 1022.44 1025.4 L 1019.24 960.185 C 1018.57 948.7 1016.98 937.343 1016.15 925.888 C 1015.46 916.414 1015.82 906.905 1015.07 897.415 C 1014.47 889.777 1012.86 882.56 1012.65 874.84 L 1035.62 874.539 z"/>
<path transform="translate(0,0)" fill="rgb(12,134,147)" d="M 1055.62 879.969 C 1059.24 885.009 1068.16 884.744 1073.45 886.826 C 1095.91 895.664 1117.83 919.913 1126.57 942.103 C 1134.94 963.355 1131.8 989.159 1123.03 1009.66 C 1123.24 1000.69 1122.94 993.086 1120.38 984.428 C 1115.13 970.809 1106.85 958.899 1096.38 948.742 C 1084.77 937.491 1065.06 924.88 1049 922.175 C 1040.55 920.753 1030.58 921.907 1021.98 922.091 C 1021.9 908.248 1022.03 894.326 1019.78 880.628 C 1031.48 879.392 1043.84 880.018 1055.62 879.969 z"/>
<path transform="translate(0,0)" fill="rgb(160,249,254)" d="M 1025.99 928.537 C 1041.21 927.607 1051.89 929.772 1065.68 936.468 C 1087.01 946.822 1107.58 965.76 1114.93 988.899 C 1116.8 994.765 1116.05 1000.91 1118.09 1006.59 L 1118.78 1008.43 C 1115.72 1023.66 1106.58 1031.98 1095.41 1041.76 C 1078.75 1054.95 1049.88 1060.82 1029.17 1062.35 C 1028.44 1051.81 1028.74 1041.2 1028.29 1030.64 C 1027.85 1020.08 1026.56 1009.55 1026.36 998.995 C 1025.95 978.116 1027.4 952.201 1022.69 931.813 C 1022.31 930.171 1022.26 931.152 1023.07 929.213 L 1025.99 928.537 z"/>
<path transform="translate(0,0)" fill="rgb(160,249,254)" d="M 895.077 1058.18 C 897.621 1059.4 899.691 1060.68 901.976 1062.34 L 902.017 1071.16 C 903.048 1086.65 903.174 1102.07 904.132 1117.53 C 905.135 1133.72 907.036 1150.01 907.629 1166.19 C 908.311 1184.79 906.612 1205.83 910.241 1224.06 C 910.86 1227.17 912.272 1229.22 914.506 1231.41 C 924.408 1241.1 970.598 1238.1 985.053 1237.92 C 995.009 1237.8 1005.09 1238.5 1015 1237.4 C 1052.06 1233.29 1088.71 1225.92 1121.88 1208.12 C 1133.57 1201.85 1144.64 1194.09 1155.97 1187.17 C 1155.91 1187.22 1155.85 1187.26 1155.79 1187.31 C 1155.52 1187.53 1155.26 1187.77 1154.99 1188 L 1156.52 1189.74 C 1154.76 1196.35 1153.25 1203.19 1150.99 1209.65 L 1149.06 1209.89 L 1148.77 1211.54 C 1145.47 1229.85 1139.1 1248.05 1134.07 1265.97 C 1128.46 1285.97 1123.91 1306.29 1118.28 1326.26 C 1113.08 1344.7 1106.64 1362.79 1101.66 1381.3 L 1052.25 1560.6 C 1044.19 1589.02 1036.89 1618.11 1029.65 1646.77 C 1027.69 1654.55 1026.32 1662.51 1024.16 1670.23 C 1021.99 1678.01 1018.71 1685.41 1016.24 1693.09 C 1014.22 1699.39 1012.97 1705.91 1010.96 1712.21 C 1010.48 1713.72 1010.69 1714.77 1010.93 1716.3 L 1012.23 1716.55 C 1015.39 1713.26 1015.61 1709.98 1017.36 1705.99 C 1017.48 1710.23 1017.58 1715.8 1014.64 1719.09 C 1012.32 1720.14 1010.45 1720.33 1009.5 1722.84 C 999.413 1749.36 995.42 1778.7 983.597 1804.4 C 983.299 1805.05 983.023 1805.7 982.732 1806.36 L 983.968 1807.78 C 985.145 1809.15 985.757 1810.24 986.307 1811.99 L 985.602 1814.95 C 984.131 1813.56 983.801 1812.27 983.004 1810.41 C 981.53 1811.17 981.425 1811.76 980.968 1813.32 C 979.412 1818.63 979.934 1824.68 978.32 1830.31 C 971.303 1854.75 962.77 1877.73 958.215 1902.84 C 957.791 1902.79 957.369 1902.71 956.943 1902.67 C 956.478 1902.63 956.01 1902.63 955.543 1902.61 C 955.071 1905.5 957.394 1908.31 956.123 1910.15 L 953.499 1910.27 C 952.142 1916.18 950.693 1922.04 949.72 1928.02 C 948.775 1933.83 944.704 1938.58 943.524 1944.16 C 942.231 1950.28 943.452 1961.33 939.101 1966 L 936.705 1966.51 L 936.438 1967.41 L 937.167 1968.13 L 939.157 1966.72 C 938.958 1969.29 927.163 2013.4 925.999 2016.39 C 924.066 2021.35 921.002 2022.83 920.278 2028.69 C 919.444 2035.45 918.12 2041.63 915.672 2048 L 735.965 2048 A 7068.76 7068.76 0 0 0 701.817 1828.91 L 703.48 1827.69 C 702.701 1819.6 699.224 1810.31 697.052 1802.4 C 698.605 1800.38 696.154 1800.12 696.985 1797.38 L 698.741 1796.78 C 701.32 1799.16 702.365 1802.76 703.765 1805.95 C 704.587 1802.86 703.653 1798.71 703.354 1795.51 C 700.797 1793.51 698.409 1796.19 695.174 1795.58 C 695.198 1791.81 696.243 1788.07 696.045 1784.28 C 695.86 1780.76 694.338 1777.14 693.789 1773.62 C 691.354 1758.07 683.322 1718.06 686.02 1704.68 C 686.601 1706.28 687.199 1706.93 688.299 1708.19 C 689.32 1706.69 689.217 1707.41 688.838 1705.57 C 688.211 1702.51 685.811 1700.07 684.219 1697.46 C 679.638 1689.93 680.486 1681.55 680.38 1673.1 C 681.476 1671.57 681.129 1672.3 681.739 1670.38 C 681.889 1669.91 682.02 1669.43 682.161 1668.96 L 680.341 1668.72 C 678.42 1667.06 677.739 1664.82 677.266 1662.4 C 676.341 1657.68 673.579 1640.7 674.711 1636.28 C 674.993 1635.17 676.88 1633.02 677.58 1631.98 L 676.343 1631.1 L 673.687 1631.72 L 672.774 1631.08 C 669.324 1623.7 674.958 1620.48 673.881 1614.67 C 673.275 1611.4 673.283 1608.02 672.812 1604.7 C 670.949 1603.46 669.345 1602.06 668.259 1600.07 C 666.226 1596.35 665.224 1588.9 666.226 1584.84 L 668.964 1585.05 L 669.199 1583.52 C 667.733 1582.8 665.905 1582.33 664.974 1580.92 C 661.935 1576.34 665.164 1572.61 665.75 1567.97 L 663.495 1566.66 C 662.607 1563.69 664.79 1564.81 665.571 1561.92 L 664.438 1560.93 L 661.791 1562.25 C 660.322 1559.33 660.505 1557.19 661.179 1554.06 L 664.04 1553.55 L 663.855 1551.96 L 661.484 1552.24 L 660.605 1551.45 C 660.405 1549.43 660.549 1548.18 661.133 1546.24 C 663.257 1546.35 662.358 1546.66 663.891 1545.52 C 663.868 1542.72 664.226 1540.05 662.479 1537.7 C 662.039 1537.51 660.236 1536.77 659.888 1536.53 C 656.858 1534.4 653.417 1513.79 652.368 1509.11 C 653.36 1505.64 655.141 1507.22 657.287 1504.57 L 656.554 1503.46 C 655.083 1504.02 653.65 1504.49 652.125 1504.89 L 651.048 1502.86 C 652.33 1500.5 654.512 1501.15 655.524 1498.48 C 653.959 1497.49 653.204 1496.95 652.008 1495.48 C 653.545 1493.24 655.12 1491 655.556 1488.24 C 656.183 1484.26 651.175 1475.83 648.599 1472.76 L 647.76 1474.43 C 647.157 1472.92 647.193 1473.36 647.064 1472.04 C 645.918 1460.34 638.258 1418.36 640.204 1410.46 L 642.778 1409.5 C 642.793 1404.1 642.715 1391.29 639.783 1387.09 L 638.536 1387.5 L 638.426 1390.46 L 637.58 1390.22 C 635.619 1385.9 636.321 1382.78 636.028 1378.23 C 629.473 1370.65 634.889 1359.99 633.662 1351.27 C 633.008 1346.63 628.636 1343.95 628.962 1339.08 L 631.585 1338.21 L 632.315 1335.56 C 630.338 1328.77 630.498 1321.93 628.88 1315.12 C 627.312 1308.52 624.312 1302.1 623.058 1295.47 C 622.418 1292.08 622.221 1290.7 624.349 1287.71 C 624.642 1287.3 624.961 1286.91 625.267 1286.51 L 624.793 1283.96 L 620.957 1283.99 L 620.939 1281.75 L 623.613 1281.73 C 623.796 1281.1 624.082 1280.5 624.163 1279.85 C 624.664 1275.78 620.679 1251.52 618.718 1248.94 C 614.324 1243.16 618.318 1236.36 616.241 1229.43 C 634.282 1239.92 652.43 1247.08 672.816 1251.74 C 679.19 1253.2 697.6 1254.18 702.059 1257.43 C 703.552 1258.51 704.16 1258.96 705.88 1259.49 C 706.517 1258.46 707.096 1256.91 708.233 1256.38 C 712.514 1254.37 724.121 1256.09 729.055 1256.1 C 750.967 1256.19 783.037 1245.02 801.814 1233.59 C 813.805 1226.29 827.705 1216.59 837.22 1206.33 C 868.33 1172.8 881.819 1113.01 892.302 1069.43 L 895.077 1058.18 z"/>
<path transform="translate(0,0)" fill="rgb(181,62,75)" d="M 1490.59 0 L 2048 0 L 2048 1568.29 C 2047.28 1567.87 2046.56 1567.44 2045.81 1567.06 C 2035.86 1561.98 2027.6 1555.36 2018.22 1549.41 L 1970.79 1519.24 L 1842.19 1436.73 C 1832.15 1430.33 1811.3 1413.38 1800.9 1411.23 C 1799.99 1411.04 1799.07 1410.85 1798.17 1410.61 C 1797.76 1410.49 1797.35 1410.37 1796.94 1410.26 L 1795.16 1409.79 L 1795.23 1406.59 C 1783.45 1398.09 1770.63 1391.38 1758.96 1382.72 C 1757.31 1382.83 1755.84 1382.77 1754.2 1382.57 C 1749.25 1377.11 1743.74 1371.84 1737.56 1367.79 C 1729.74 1368.62 1728.9 1359.47 1719.43 1358.95 C 1719.13 1358.93 1718.83 1358.93 1718.54 1358.91 C 1717.47 1356.49 1717.07 1355.08 1714.93 1353.39 L 1712.44 1355.1 C 1710.23 1353.27 1710.21 1351.39 1709.43 1348.71 L 1707.97 1348.13 L 1705.58 1351.74 L 1704.24 1351.12 C 1704.24 1349.22 1704.32 1347.64 1703.76 1345.81 C 1703.24 1344.08 1700.16 1343.12 1698.6 1342.31 C 1683.29 1334.37 1670.4 1322.85 1655.66 1314.18 L 1653.73 1315.37 L 1652.05 1314.74 L 1651.25 1313.55 C 1650.88 1313 1650.48 1312.48 1650.13 1311.92 C 1645.38 1304.43 1624.85 1295.5 1616.6 1290.28 C 1610.95 1286.7 1564.48 1254.72 1564 1254.61 C 1563.67 1254.54 1560.93 1255.06 1560.67 1254.98 C 1557.49 1253.97 1537.74 1236.81 1532.61 1233.23 C 1539.99 1233.43 1557.83 1225.35 1564.34 1221.21 C 1588.62 1205.76 1615.74 1170.22 1627.53 1144.27 C 1632.56 1133.21 1635.73 1121.81 1639.21 1110.23 C 1640.46 1106.07 1642.69 1101.89 1643.56 1097.68 C 1643.9 1096.03 1643.59 1096.83 1644.24 1095.24 C 1644.36 1094.95 1644.49 1094.67 1644.62 1094.39 C 1647.73 1082.65 1650.63 1070.4 1655.17 1059.14 C 1656.41 1067.53 1655.28 1076.01 1656.48 1084.4 C 1657.38 1100.38 1661.14 1116.22 1662.53 1132.27 C 1664.65 1156.73 1663.8 1181.6 1668.4 1205.87 C 1671.35 1221.39 1677.74 1232.6 1690.91 1241.55 C 1721.06 1238.99 1751.29 1240.31 1781.5 1240.43 C 1805.79 1240.53 1830 1239.57 1854.27 1239.16 C 1867.29 1238.94 1881.28 1240.51 1894.16 1239.19 C 1896.27 1238.97 1898.11 1238.23 1899.92 1237.14 C 1900.38 1236.86 1900.82 1236.54 1901.29 1236.25 C 1911.21 1230.13 1917.59 1223.14 1922.68 1212.72 C 1928.14 1201.54 1932.63 1188.78 1933.86 1176.33 C 1935.51 1159.54 1926.59 1081.34 1921.04 1065.19 C 1917.36 1062.05 1912.81 1058.33 1908.2 1056.75 C 1907.76 1056.6 1907.32 1056.48 1906.88 1056.34 C 1900.24 1054.2 1893.12 1054.49 1886.2 1054.36 C 1894.88 1041.02 1904.39 1027.23 1909.15 1011.91 C 1912.55 1000.94 1908.65 937.429 1903.25 928.227 C 1900.35 923.287 1893.65 918.336 1888.19 916.703 C 1874.98 912.749 1825.19 914.729 1810.13 915.279 C 1803.21 915.532 1794.53 917.238 1787.88 915.457 L 1787.43 914.068 C 1789.68 912.47 1852.89 910.974 1860.13 910.793 C 1865 910.671 1874.54 911.932 1878.76 910.017 C 1885.22 907.085 1904.64 865.46 1907.01 856.309 C 1912.24 836.158 1905.35 774.256 1894.37 756.857 C 1890.38 750.542 1886.95 746.753 1879.52 745.236 C 1860.06 741.265 1839.04 745.41 1819.49 746.746 C 1803.36 747.848 1787.02 748.454 1770.85 749.353 C 1760.73 749.915 1750.58 749.189 1740.45 749.488 C 1727.15 749.88 1660.79 752.608 1652.76 757.955 C 1650.74 774.455 1638.8 789.436 1636.41 806.421 C 1633.39 827.867 1638.08 852.678 1639.63 874.34 C 1642.06 908.123 1643.2 941.975 1647.88 975.589 C 1642.66 967.914 1639.19 961.924 1630.47 957.805 C 1623.46 954.493 1553.5 949.78 1541.21 948.826 C 1533.85 948.255 1522.87 949.428 1516.5 945.696 C 1516.17 945.502 1515.86 945.266 1515.52 945.105 C 1507.26 941.258 1485.81 947.856 1477.56 950.846 L 1477.94 950.257 C 1466.95 963.469 1461.54 976.148 1453.96 991.345 C 1446.97 1005.37 1438.14 1018.31 1437.59 1034.55 C 1437.32 1042.53 1438.92 1050.76 1441.62 1058.26 C 1449.08 1078.96 1461.45 1081.51 1481.37 1083.43 C 1486.89 1083.97 1492.22 1085.15 1497.77 1085.36 C 1501.69 1085.51 1507.4 1084.88 1510.23 1087.89 C 1509.13 1090.24 1509.04 1089.92 1506.93 1091.12 C 1505.63 1090.68 1504.32 1090.3 1503.03 1089.87 C 1497 1087.83 1491.81 1088.44 1485.58 1088.95 C 1488.69 1090.68 1498.93 1089.89 1502.94 1090.27 L 1502.54 1091.07 C 1493.94 1093.73 1478.93 1093.21 1470.04 1091.36 C 1461.44 1089.58 1452.66 1089.35 1444.01 1087.92 A 122.547 122.547 0 0 1 1376.54 1053 C 1360.91 1037.19 1353.59 1022.67 1349.65 1000.88 C 1348.7 995.63 1347.15 989.582 1347.38 984.274 C 1347.89 972.67 1360.73 957.512 1369.31 950.201 C 1404.18 920.503 1435.76 912.107 1480.65 920.282 C 1489.65 921.921 1499.09 923.492 1507.82 926.188 C 1513.02 927.792 1517.6 930.883 1522.67 932.833 C 1523.77 933.256 1549.15 938.27 1550.86 938.322 C 1554.12 938.42 1557.76 934.513 1559.71 932.282 C 1563.94 927.427 1567.14 920.958 1570.41 915.423 C 1576.8 904.602 1583.41 893.678 1588.49 882.164 C 1596.24 864.616 1605.85 833.014 1604.44 814.006 C 1603.6 802.736 1600.41 792.055 1591.38 784.72 C 1557.28 757.022 1490.93 748.882 1448.5 752.989 C 1402.33 757.459 1354.15 773.803 1317.98 803.316 C 1311.86 808.307 1305.44 813.414 1300.49 819.61 C 1298.87 821.643 1298.33 822.692 1295.54 823.009 C 1295.2 823.048 1294.85 823.064 1294.51 823.092 C 1279.12 840.204 1272.01 852.725 1259.74 871.147 C 1262 857.353 1267.23 843.515 1270.44 829.804 C 1280.06 788.672 1289.69 747.758 1300.49 706.908 C 1304.62 691.261 1311.89 673.941 1314.07 658.078 C 1314.52 654.765 1314.73 650.443 1316.01 647.387 C 1316.89 645.276 1317.47 645.338 1319.48 644.619 C 1319.47 639.947 1320.2 635.153 1321.27 630.612 C 1328.12 601.535 1337.14 572.837 1344.61 543.894 C 1345.85 539.111 1346.43 527.123 1349.04 523.721 C 1350.65 521.627 1351.63 519.671 1352.78 517.31 L 1352.49 514.021 C 1353.44 512.084 1353.99 510.997 1354.23 508.822 C 1352.07 509.361 1351.58 509.821 1349.41 509.082 C 1348.49 505.534 1360.64 463.151 1363.04 457.364 C 1365.52 456.093 1367.23 455.455 1368.96 453.182 C 1367.38 451.399 1365.66 449.806 1363.92 448.185 L 1363.89 446.324 C 1364.41 446.403 1364.93 446.451 1365.45 446.563 C 1365.83 446.646 1366.2 446.792 1366.58 446.907 C 1368.79 438.997 1369.53 430.999 1371.03 422.959 C 1372.14 417.021 1373.94 415.551 1378.85 412.264 C 1380.26 411.325 1379.75 411.978 1380.35 410.436 C 1378.68 410.036 1377.93 409.751 1376.41 408.846 C 1376.25 407.97 1376.11 407.506 1376.25 406.535 C 1377.3 399.017 1381.69 382.02 1387.53 377.347 C 1387.79 377.136 1388.06 376.939 1388.33 376.735 C 1387.72 376.399 1385.49 375.399 1384.97 374.754 C 1382.17 371.3 1392.27 350.197 1392.74 343.822 C 1392.96 340.758 1393.34 337.716 1393.66 334.659 C 1395.58 334.467 1396.84 334.324 1398.58 333.396 C 1400.24 332.507 1399.69 332.951 1400.29 330.978 L 1397.74 327.923 C 1398.67 320.669 1401.68 310.369 1404.8 303.761 C 1406.01 301.185 1408.11 301.265 1410.59 300.59 C 1411.25 296.294 1407.44 290.919 1409.07 287.64 L 1410.3 290.111 L 1411.43 290.451 C 1414.14 286.113 1421.64 259.254 1420.85 254.47 L 1417.56 256.31 L 1416.95 255.248 C 1418.09 251.966 1419.19 246.647 1421.74 244.284 L 1423.34 248.144 L 1424.51 245.534 C 1423.95 243.917 1423.37 242.256 1423.02 240.581 C 1421.71 234.238 1428.23 214.677 1431.87 209.242 C 1432.61 212.444 1431.07 218.917 1429.63 221.871 C 1428.88 223.398 1428.33 224.837 1427.79 226.445 L 1428.95 227.168 C 1432.96 223.251 1432.44 213.356 1434.6 207.977 C 1435.74 205.136 1436.57 202.085 1436.43 199.001 L 1433.54 201.194 C 1432.66 199.033 1432.86 199.481 1433.5 197.478 L 1436.36 196.91 C 1437.13 194.767 1435.1 193.5 1434.62 190.966 C 1436.34 185.345 1440.28 181.033 1442.04 175.631 C 1443.86 170.061 1441.2 163.607 1445.05 158.447 L 1447.07 159.099 C 1448.7 157.027 1448.51 153.233 1448.79 150.548 C 1449.99 138.906 1455.39 127.561 1458.41 116.25 C 1462.89 99.4602 1467.05 82.6013 1471.88 65.9043 C 1478.26 43.8986 1485.28 22.3161 1490.59 0 z"/>
<path transform="translate(0,0)" fill="rgb(160,249,254)" d="M 452.369 0 L 1490.59 0 C 1485.28 22.3161 1478.26 43.8986 1471.88 65.9043 C 1467.05 82.6013 1462.89 99.4602 1458.41 116.25 C 1455.39 127.561 1449.99 138.906 1448.79 150.548 C 1448.51 153.233 1448.7 157.027 1447.07 159.099 L 1445.05 158.447 C 1441.2 163.607 1443.86 170.061 1442.04 175.631 C 1440.28 181.033 1436.34 185.345 1434.62 190.966 C 1435.1 193.5 1437.13 194.767 1436.36 196.91 L 1433.5 197.478 C 1432.86 199.481 1432.66 199.033 1433.54 201.194 L 1436.43 199.001 C 1436.57 202.085 1435.74 205.136 1434.6 207.977 C 1432.44 213.356 1432.96 223.251 1428.95 227.168 L 1427.79 226.445 C 1428.33 224.837 1428.88 223.398 1429.63 221.871 C 1431.07 218.917 1432.61 212.444 1431.87 209.242 C 1428.23 214.677 1421.71 234.238 1423.02 240.581 C 1423.37 242.256 1423.95 243.917 1424.51 245.534 L 1423.34 248.144 L 1421.74 244.284 C 1419.19 246.647 1418.09 251.966 1416.95 255.248 L 1417.56 256.31 L 1420.85 254.47 C 1421.64 259.254 1414.14 286.113 1411.43 290.451 L 1410.3 290.111 L 1409.07 287.64 C 1407.44 290.919 1411.25 296.294 1410.59 300.59 C 1408.11 301.265 1406.01 301.185 1404.8 303.761 C 1401.68 310.369 1398.67 320.669 1397.74 327.923 L 1400.29 330.978 C 1399.69 332.951 1400.24 332.507 1398.58 333.396 C 1396.84 334.324 1395.58 334.467 1393.66 334.659 C 1393.34 337.716 1392.96 340.758 1392.74 343.822 C 1392.27 350.197 1382.17 371.3 1384.97 374.754 C 1385.49 375.399 1387.72 376.399 1388.33 376.735 C 1388.06 376.939 1387.79 377.136 1387.53 377.347 C 1381.69 382.02 1377.3 399.017 1376.25 406.535 C 1376.11 407.506 1376.25 407.97 1376.41 408.846 C 1377.93 409.751 1378.68 410.036 1380.35 410.436 C 1379.75 411.978 1380.26 411.325 1378.85 412.264 C 1373.94 415.551 1372.14 417.021 1371.03 422.959 C 1369.53 430.999 1368.79 438.997 1366.58 446.907 C 1366.2 446.792 1365.83 446.646 1365.45 446.563 C 1364.93 446.451 1364.41 446.403 1363.89 446.324 L 1363.92 448.185 C 1365.66 449.806 1367.38 451.399 1368.96 453.182 C 1367.23 455.455 1365.52 456.093 1363.04 457.364 C 1360.64 463.151 1348.49 505.534 1349.41 509.082 C 1351.58 509.821 1352.07 509.361 1354.23 508.822 C 1353.99 510.997 1353.44 512.084 1352.49 514.021 L 1352.78 517.31 L 1349.5 513.434 L 1347.88 513.518 C 1344.56 521.132 1343.1 530.117 1340.76 538.148 L 1323.27 599.046 L 1256.41 832.068 C 1252.49 846.031 1248.96 860.597 1244.65 874.382 C 1242.39 881.608 1239.35 887.141 1238.96 894.881 C 1235.59 886.24 1230.83 878.238 1226.24 870.207 C 1202.78 829.193 1169.61 798.361 1126.15 779.464 C 1108.84 771.942 1090.45 768.167 1071.75 766.197 C 1062.67 765.24 1054.91 766.354 1046.27 762.876 C 1040.12 763.969 1033.43 765.68 1027.19 765.293 C 1019.28 764.802 1011.52 761.781 1003.64 761.465 C 995.083 761.122 986.558 763.699 977.931 763.009 C 966.038 762.058 951.258 758.136 939.513 760.016 C 937.357 760.361 935.402 762.767 934.005 764.382 C 924.102 763.264 917.897 759.373 909.125 766.162 C 900.345 772.958 897.516 783.871 894.791 794.132 C 889.616 793.915 889.364 793.703 885.385 790.355 C 885.062 792.675 884.853 794.839 884.834 797.19 C 884.164 793.885 883.933 790.411 883.54 787.06 C 881.351 780.372 879.357 773.224 874.597 767.858 C 870.649 762.001 866.787 760.295 859.941 758.892 C 837.645 754.323 786.957 764.509 767.656 776.772 C 766.929 779.826 766.158 782.758 765.12 785.722 C 762.991 791.8 762.003 798.5 760.72 804.805 C 754.406 835.825 759.661 845.415 761.169 874.884 C 761.541 882.15 760.022 893.563 762.49 900.098 C 763.172 901.905 763.065 900.879 763.955 902.67 C 766.28 907.347 765.166 927.823 765.577 933.977 C 766.568 948.831 769.369 964.059 769.582 978.861 C 769.709 987.745 766.928 1003.08 769.095 1010.96 L 771.543 1013.13 C 768.996 1016.69 767.595 1020.76 765.569 1024.59 C 755.796 1043.05 742.404 1047.85 723.68 1053.44 C 711.098 1050.58 701.39 1050.02 691.302 1040.79 C 646.278 999.576 658.243 927.144 655.243 872.754 C 654.681 862.58 652.961 852.452 651.945 842.315 C 650.122 824.12 649.354 804.131 644.752 786.474 C 643.757 782.655 642.344 778.285 639.189 775.681 C 625.437 764.328 587.089 774.519 570.605 776.694 C 570.446 773.905 570.459 773.304 568.941 771.001 C 568.43 762.386 560.077 701.425 557.894 699.154 L 554.763 699.61 L 554.253 697.454 C 555.275 695.547 557.917 691.208 557.995 689.223 C 558.078 687.08 556.52 682.96 556.059 680.669 C 553.778 669.321 549.651 656.483 550.517 645.03 C 551.336 634.193 548.669 620.168 545.169 609.863 C 544.595 608.173 544.843 607.798 542.98 607.11 C 542.416 606.902 541.816 606.81 541.233 606.66 C 542.705 604.662 544.228 602.812 544.276 600.2 C 544.38 594.531 541.669 586.886 540.678 581.208 C 538.836 570.646 537.948 559.902 536.297 549.302 C 535.098 541.612 532.998 534.021 532.3 526.271 C 533.664 518.805 530.983 504.671 528.88 497.459 C 528.45 495.983 528.097 494.584 527.836 493.064 L 527.533 491.25 C 527.208 486.817 527.09 482.9 524.115 479.363 L 524.29 478.762 C 524.669 476.655 513.531 392.833 512.105 390.115 C 508.782 384.769 510.575 374.588 508.184 367.865 C 508.499 357.357 504.937 345.861 503.195 335.484 L 493.142 273.023 C 491.085 260.12 490.883 246.676 487.863 234.011 C 487.321 227.592 480.991 181.489 479.23 177.993 C 478.719 176.978 477.793 176.231 477.074 175.349 L 476.984 174.813 C 477.518 173.728 477.925 172.567 478.373 171.444 C 476.544 160.593 465.284 81.3638 463.122 78.3467 L 462.97 77.7498 C 463.228 71.5979 459.461 34.3699 457.534 30.1035 C 456.347 25.2265 454.734 19.2801 454.774 14.2513 L 454.836 8.69986 C 453.734 5.89684 453.107 2.91543 452.369 0 z"/>
<path transform="translate(0,0)" fill="rgb(208,69,75)" d="M 1017.36 1705.99 L 1079.17 1487.62 C 1083.49 1472.2 1088.95 1457.11 1093.03 1441.6 C 1095.73 1431.33 1112.63 1360.83 1115.69 1357.53 C 1116.47 1356.69 1117.58 1356.23 1118.53 1355.59 C 1121.7 1326.59 1137.04 1286.79 1145.23 1258.09 L 1160.63 1204.35 C 1163.23 1195.16 1164.89 1184.77 1169.03 1176.16 C 1177.67 1158.17 1195.45 1139.42 1206.63 1121.6 C 1215.96 1106.72 1221.48 1090.5 1230.14 1075.41 C 1234.04 1089.34 1238.73 1103.9 1245.27 1116.8 C 1272.94 1171.32 1318.97 1209.15 1376.92 1227.91 C 1412.61 1239.46 1498.8 1250.45 1532.61 1233.23 C 1537.74 1236.81 1557.49 1253.97 1560.67 1254.98 C 1560.93 1255.06 1563.67 1254.54 1564 1254.61 C 1564.48 1254.72 1610.95 1286.7 1616.6 1290.28 C 1624.85 1295.5 1645.38 1304.43 1650.13 1311.92 C 1650.48 1312.48 1650.88 1313 1651.25 1313.55 L 1652.05 1314.74 L 1653.73 1315.37 L 1655.66 1314.18 C 1670.4 1322.85 1683.29 1334.37 1698.6 1342.31 C 1700.16 1343.12 1703.24 1344.08 1703.76 1345.81 C 1704.32 1347.64 1704.24 1349.22 1704.24 1351.12 L 1705.58 1351.74 L 1707.97 1348.13 L 1709.43 1348.71 C 1710.21 1351.39 1710.23 1353.27 1712.44 1355.1 L 1714.93 1353.39 C 1717.07 1355.08 1717.47 1356.49 1718.54 1358.91 C 1718.83 1358.93 1719.13 1358.93 1719.43 1358.95 C 1728.9 1359.47 1729.74 1368.62 1737.56 1367.79 C 1743.74 1371.84 1749.25 1377.11 1754.2 1382.57 C 1755.84 1382.77 1757.31 1382.83 1758.96 1382.72 C 1770.63 1391.38 1783.45 1398.09 1795.23 1406.59 L 1795.16 1409.79 L 1796.94 1410.26 C 1797.35 1410.37 1797.76 1410.49 1798.17 1410.61 C 1799.07 1410.85 1799.99 1411.04 1800.9 1411.23 C 1811.3 1413.38 1832.15 1430.33 1842.19 1436.73 L 1970.79 1519.24 L 2018.22 1549.41 C 2027.6 1555.36 2035.86 1561.98 2045.81 1567.06 C 2046.56 1567.44 2047.28 1567.87 2048 1568.29 L 2048 2048 L 915.672 2048 C 918.12 2041.63 919.444 2035.45 920.278 2028.69 C 921.002 2022.83 924.066 2021.35 925.999 2016.39 C 927.163 2013.4 938.958 1969.29 939.157 1966.72 L 937.167 1968.13 L 936.438 1967.41 L 936.705 1966.51 L 939.101 1966 C 943.452 1961.33 942.231 1950.28 943.524 1944.16 C 944.704 1938.58 948.775 1933.83 949.72 1928.02 C 950.693 1922.04 952.142 1916.18 953.499 1910.27 L 956.123 1910.15 C 957.394 1908.31 955.071 1905.5 955.543 1902.61 C 956.01 1902.63 956.478 1902.63 956.943 1902.67 C 957.369 1902.71 957.791 1902.79 958.215 1902.84 C 962.77 1877.73 971.303 1854.75 978.32 1830.31 C 979.934 1824.68 979.412 1818.63 980.968 1813.32 C 981.425 1811.76 981.53 1811.17 983.004 1810.41 C 983.801 1812.27 984.131 1813.56 985.602 1814.95 L 986.307 1811.99 C 985.757 1810.24 985.145 1809.15 983.968 1807.78 L 982.732 1806.36 C 983.023 1805.7 983.299 1805.05 983.597 1804.4 C 995.42 1778.7 999.413 1749.36 1009.5 1722.84 C 1010.45 1720.33 1012.32 1720.14 1014.64 1719.09 C 1017.58 1715.8 1017.48 1710.23 1017.36 1705.99 z"/>
<path transform="translate(0,0)" fill="rgb(82,232,184)" d="M 0 0 L 446.654 0 L 452.369 0 C 453.107 2.91543 453.734 5.89684 454.836 8.69986 L 454.774 14.2513 C 454.734 19.2801 456.347 25.2265 457.534 30.1035 C 459.461 34.3699 463.228 71.5979 462.97 77.7498 L 463.122 78.3467 C 465.284 81.3638 476.544 160.593 478.373 171.444 C 477.925 172.567 477.518 173.728 476.984 174.813 L 477.074 175.349 C 477.793 176.231 478.719 176.978 479.23 177.993 C 480.991 181.489 487.321 227.592 487.863 234.011 C 490.883 246.676 491.085 260.12 493.142 273.023 L 503.195 335.484 C 504.937 345.861 508.499 357.357 508.184 367.865 C 510.575 374.588 508.782 384.769 512.105 390.115 C 513.531 392.833 524.669 476.655 524.29 478.762 L 524.115 479.363 C 527.09 482.9 527.208 486.817 527.533 491.25 L 527.836 493.064 C 528.097 494.584 528.45 495.983 528.88 497.459 C 530.983 504.671 533.664 518.805 532.3 526.271 C 532.998 534.021 535.098 541.612 536.297 549.302 C 537.948 559.902 538.836 570.646 540.678 581.208 C 541.669 586.886 544.38 594.531 544.276 600.2 C 544.228 602.812 542.705 604.662 541.233 606.66 C 541.816 606.81 542.416 606.902 542.98 607.11 C 544.843 607.798 544.595 608.173 545.169 609.863 C 548.669 620.168 551.336 634.193 550.517 645.03 C 549.651 656.483 553.778 669.321 556.059 680.669 C 556.52 682.96 558.078 687.08 557.995 689.223 C 557.917 691.208 555.275 695.547 554.253 697.454 L 554.763 699.61 L 557.894 699.154 C 560.077 701.425 568.43 762.386 568.941 771.001 C 568.769 771.268 568.601 771.537 568.424 771.801 C 565.187 776.651 562.088 777.319 556.625 778.373 C 547.632 780.107 542.284 780.793 536.627 788.835 A 36.9784 36.9784 0 0 0 532.04 797.752 C 529.474 804.881 528.561 812.584 526.64 819.91 C 524.494 828.097 521.146 836.288 519.685 844.606 C 518.865 849.271 518.796 854.034 518.06 858.703 C 515.305 836.586 514.391 797.66 506.472 779.076 C 504.738 775.008 501.984 771.825 499.081 768.549 C 495.867 767.41 491.854 765.643 488.418 765.73 C 479.184 765.965 469.565 769.269 460.524 770.972 C 444.624 773.968 426.424 773.421 411.488 780.067 C 406.048 782.488 401.708 786.819 399.747 792.482 C 397.358 799.376 396.809 807.106 394.76 814.2 C 391.188 826.57 385.919 839.349 384.141 852.073 C 381.984 867.501 385.412 883.103 387.375 898.363 C 389.476 914.685 391.417 931.427 391.824 947.87 C 380.224 927.684 351.505 901.043 335.772 882.156 A 2489.22 2489.22 0 0 1 282.834 816.865 C 276.718 809.089 271.406 800.408 265.016 792.911 C 261.088 788.302 254.797 784.949 249.575 782.059 C 238.456 782.986 228.699 787.54 217.831 789.032 C 210.635 790.021 203.302 789.523 196.065 789.917 C 190.164 790.238 184.423 791.8 178.585 792.591 C 165.664 794.342 145.772 792.4 136.813 803.733 C 127.931 814.969 117.391 847.864 116.417 861.923 C 115.509 875.021 118.055 889.676 119.149 902.759 C 122.19 939.113 126.502 975.315 130.082 1011.61 L 142.938 1146.72 C 145.514 1175.03 146.97 1203.29 151.195 1231.46 C 152.797 1242.14 157.601 1250.81 164.806 1258.64 C 180.015 1259.41 194.879 1257.8 210.035 1256.89 C 223.634 1256.08 237.392 1255.76 250.94 1254.44 C 257.882 1253.77 264.772 1250.76 271.513 1250.6 C 279.325 1233.85 290.732 1215.12 294.653 1197.04 C 297.022 1186.13 293.116 1167.66 292.051 1156.33 L 283.386 1069.67 C 308.17 1101.7 341.151 1136.22 368.909 1166.14 C 380.355 1178.47 429.348 1227.62 433.991 1238.81 C 453.989 1240.83 509.917 1238.83 525.216 1225.91 C 527.211 1224.22 529.085 1222.35 530.87 1220.45 C 533.782 1206.64 540.783 1194.14 545.058 1180.75 C 547.66 1172.61 548.137 1165.29 549.381 1156.98 L 550.271 1157.42 C 550.847 1154.55 550.531 1148.7 552.388 1146.63 C 553.686 1149.36 555.446 1151.94 557.034 1154.51 L 557.736 1153.06 C 568.021 1173.92 576.156 1193.81 593.518 1210.01 C 600.569 1216.58 609.883 1222.4 616.241 1229.43 C 618.318 1236.36 614.324 1243.16 618.718 1248.94 C 620.679 1251.52 624.664 1275.78 624.163 1279.85 C 624.082 1280.5 623.796 1281.1 623.613 1281.73 L 620.939 1281.75 L 620.957 1283.99 L 624.793 1283.96 L 625.267 1286.51 C 624.961 1286.91 624.642 1287.3 624.349 1287.71 C 622.221 1290.7 622.418 1292.08 623.058 1295.47 C 624.312 1302.1 627.312 1308.52 628.88 1315.12 C 630.498 1321.93 630.338 1328.77 632.315 1335.56 L 631.585 1338.21 L 628.962 1339.08 C 628.636 1343.95 633.008 1346.63 633.662 1351.27 C 634.889 1359.99 629.473 1370.65 636.028 1378.23 C 636.321 1382.78 635.619 1385.9 637.58 1390.22 L 638.426 1390.46 L 638.536 1387.5 L 639.783 1387.09 C 642.715 1391.29 642.793 1404.1 642.778 1409.5 L 640.204 1410.46 C 638.258 1418.36 645.918 1460.34 647.064 1472.04 C 647.193 1473.36 647.157 1472.92 647.76 1474.43 L 648.599 1472.76 C 651.175 1475.83 656.183 1484.26 655.556 1488.24 C 655.12 1491 653.545 1493.24 652.008 1495.48 C 653.204 1496.95 653.959 1497.49 655.524 1498.48 C 654.512 1501.15 652.33 1500.5 651.048 1502.86 L 652.125 1504.89 C 653.65 1504.49 655.083 1504.02 656.554 1503.46 L 657.287 1504.57 C 655.141 1507.22 653.36 1505.64 652.368 1509.11 C 653.417 1513.79 656.858 1534.4 659.888 1536.53 C 660.236 1536.77 662.039 1537.51 662.479 1537.7 C 664.226 1540.05 663.868 1542.72 663.891 1545.52 C 662.358 1546.66 663.257 1546.35 661.133 1546.24 C 660.549 1548.18 660.405 1549.43 660.605 1551.45 L 661.484 1552.24 L 663.855 1551.96 L 664.04 1553.55 L 661.179 1554.06 C 660.505 1557.19 660.322 1559.33 661.791 1562.25 L 664.438 1560.93 L 665.571 1561.92 C 664.79 1564.81 662.607 1563.69 663.495 1566.66 L 665.75 1567.97 C 665.164 1572.61 661.935 1576.34 664.974 1580.92 C 665.905 1582.33 667.733 1582.8 669.199 1583.52 L 668.964 1585.05 L 666.226 1584.84 C 665.224 1588.9 666.226 1596.35 668.259 1600.07 C 669.345 1602.06 670.949 1603.46 672.812 1604.7 C 673.283 1608.02 673.275 1611.4 673.881 1614.67 C 674.958 1620.48 669.324 1623.7 672.774 1631.08 L 673.687 1631.72 L 676.343 1631.1 L 677.58 1631.98 C 676.88 1633.02 674.993 1635.17 674.711 1636.28 C 673.579 1640.7 676.341 1657.68 677.266 1662.4 C 677.739 1664.82 678.42 1667.06 680.341 1668.72 L 682.161 1668.96 C 682.02 1669.43 681.889 1669.91 681.739 1670.38 C 681.129 1672.3 681.476 1671.57 680.38 1673.1 C 680.486 1681.55 679.638 1689.93 684.219 1697.46 C 685.811 1700.07 688.211 1702.51 688.838 1705.57 C 689.217 1707.41 689.32 1706.69 688.299 1708.19 C 687.199 1706.93 686.601 1706.28 686.02 1704.68 C 683.322 1718.06 691.354 1758.07 693.789 1773.62 C 694.338 1777.14 695.86 1780.76 696.045 1784.28 C 696.243 1788.07 695.198 1791.81 695.174 1795.58 C 698.409 1796.19 700.797 1793.51 703.354 1795.51 C 703.653 1798.71 704.587 1802.86 703.765 1805.95 C 702.365 1802.76 701.32 1799.16 698.741 1796.78 L 696.985 1797.38 C 696.154 1800.12 698.605 1800.38 697.052 1802.4 C 699.224 1810.31 702.701 1819.6 703.48 1827.69 L 701.817 1828.91 A 7068.76 7068.76 0 0 1 735.965 2048 L 0 2048 L 0 0 z"/>
<path transform="translate(0,0)" fill="rgb(19,10,9)" d="M 524.115 479.363 C 527.09 482.9 527.208 486.817 527.533 491.25 L 527.836 493.064 C 528.097 494.584 528.45 495.983 528.88 497.459 C 530.983 504.671 533.664 518.805 532.3 526.271 C 532.067 526.108 531.821 525.963 531.602 525.782 C 525.311 520.596 524.84 503.324 523.956 495.514 C 522.84 492.858 522.082 490.312 521.733 487.435 C 521.315 483.985 521.944 481.999 524.115 479.363 z"/>
<path transform="translate(0,0)" fill="rgb(19,10,9)" d="M 446.654 0 L 452.369 0 C 453.107 2.91543 453.734 5.89684 454.836 8.69986 L 454.774 14.2513 C 454.734 19.2801 456.347 25.2265 457.534 30.1035 C 459.461 34.3699 463.228 71.5979 462.97 77.7498 C 461.708 76.8813 460.596 75.9048 459.571 74.7567 C 458.663 73.7382 457.893 72.7043 457.652 71.333 C 456.86 66.8341 457.288 61.6211 456.663 56.9354 C 455.525 48.4163 452.193 39.8356 452.388 31.2542 C 451.047 26.4106 447.606 16.417 449.069 11.9888 C 448.426 7.92819 447.108 4.18607 446.654 0 z"/>
<path transform="translate(0,0)" fill="rgb(19,10,9)" d="M 476.984 174.813 C 476.09 174.662 475.439 174.1 474.681 173.62 C 472.476 168.664 473.855 166.025 473.076 161.192 C 472.163 155.536 470.278 149.949 469.199 144.292 C 465.616 125.494 461.641 102.906 460.837 83.8518 C 460.705 80.7402 461.132 80.5231 463.122 78.3467 C 465.284 81.3638 476.544 160.593 478.373 171.444 C 477.925 172.567 477.518 173.728 476.984 174.813 z"/>
<path transform="translate(0,0)" fill="rgb(19,10,9)" d="M 483.908 236.115 C 482.023 226.763 473.984 182.41 477.074 175.349 C 477.793 176.231 478.719 176.978 479.23 177.993 C 480.991 181.489 487.321 227.592 487.863 234.011 C 490.883 246.676 491.085 260.12 493.142 273.023 L 503.195 335.484 C 504.937 345.861 508.499 357.357 508.184 367.865 C 510.575 374.588 508.782 384.769 512.105 390.115 C 513.531 392.833 524.669 476.655 524.29 478.762 C 523.448 478.147 522.798 477.752 522.141 476.874 C 519.304 473.083 519.334 461.758 518.772 456.877 C 517.457 445.47 515.908 433.925 513.606 422.677 C 512.229 415.944 510.001 409.278 509.033 402.478 C 508.434 398.274 508.121 394.048 509.304 389.928 C 508.475 389.073 507.961 388.642 507.334 387.696 C 504.414 383.296 504.084 371.951 505.288 366.802 C 497.03 346.409 497.26 320.223 493.82 298.48 C 491.659 284.812 489.827 271.089 487.618 257.439 C 486.447 250.201 484.484 243.479 483.908 236.115 z"/>
</svg>